<svg xmlns="http://www.w3.org/2000/svg" width="500.191" height="357.095" viewBox="0 0 500.191 357.095"><defs><style>.a{fill:#64e6ba;}.b{fill:#2f2f2f;stroke:#fff;stroke-width:2px;}</style></defs><g transform="translate(-957.971 -5053.126)"><path class="a" d="M1057.748,5056.637a3.968,3.968,0,0,0-4.072,3.813l-.184,5.7-5.7-.184a3.96,3.96,0,0,0-.26,7.917l5.7.184-.185,5.7a3.961,3.961,0,0,0,7.917.262l.184-5.7,5.7.187a3.96,3.96,0,0,0,.254-7.917l-5.691-.187.184-5.694A3.972,3.972,0,0,0,1057.748,5056.637Z" transform="translate(374.179 11.069)"/><path class="a" d="M981.448,5083.517a3.951,3.951,0,0,0,2.215-5.144l-2.128-5.287,5.29-2.127a3.96,3.96,0,0,0-2.951-7.349l-5.291,2.131-2.128-5.292a3.96,3.96,0,0,0-7.348,2.957l2.128,5.287-5.285,2.128a3.96,3.96,0,0,0,2.951,7.349l5.285-2.131,2.128,5.292A3.949,3.949,0,0,0,981.448,5083.517Z" transform="translate(19.87 17.032)"/><path class="a" d="M960.256,5115.471a3.955,3.955,0,0,0,5.144,2.217l5.285-2.124,2.128,5.286a3.959,3.959,0,0,0,7.348-2.951l-2.128-5.292,5.291-2.128a3.961,3.961,0,0,0-2.957-7.349l-5.285,2.13-2.128-5.286a3.96,3.96,0,0,0-7.349,2.951l2.128,5.289-5.291,2.125A3.949,3.949,0,0,0,960.256,5115.471Z" transform="translate(4.417 191.513)"/><path class="a" d="M1039.794,5128.137a3.976,3.976,0,0,0-4.04-3.857l-5.7.137-.135-5.7a3.959,3.959,0,0,0-7.917.185l.135,5.7-5.7.134a3.96,3.96,0,0,0,.184,7.917l5.7-.134.13,5.7a3.962,3.962,0,0,0,7.922-.184l-.135-5.7,5.7-.131A3.979,3.979,0,0,0,1039.794,5128.137Z" transform="translate(236.724 268.152)"/><path class="b" d="M958.971,5117.074a5.416,5.416,0,0,0,5.41,5.42l14.318.012h.005a5.416,5.416,0,0,0,.006-10.832l-14.318-.009h-.005A5.411,5.411,0,0,0,958.971,5117.074Z" transform="translate(0 254.036)"/><path class="b" d="M1079.143,5111.75l-30.358-.021h-.005a5.416,5.416,0,0,0-.005,10.832l30.357.021h.005a5.416,5.416,0,0,0,.006-10.832Z" transform="translate(372.609 254.324)"/><path class="b" d="M1384.412,5187.253,1335.86,5067.3a14.287,14.287,0,0,0-19.153-7.8l-37.808,16.808a14.353,14.353,0,0,0-8.334,16.27l-10.169,5.7a18.252,18.252,0,0,1-11.491,2.127l-69.736-10.3a40.02,40.02,0,0,0-33.292,10.671l-5.161,4.945h-38.761a7.437,7.437,0,0,1-4.9-1.824l-3.493-3.007a14.255,14.255,0,0,0-4.294-16.764l-29.285-23.108a14.24,14.24,0,0,0-10.809-2.966,14.408,14.408,0,0,0-9.655,5.7L969.1,5159.435a14.406,14.406,0,0,0,2.6,19.848l29.161,23.063a14.4,14.4,0,0,0,20.518-2.793l.347-.476,4.365,3.281a9.845,9.845,0,0,1,3.948,7.988v17.45l-10.873,14a28.829,28.829,0,0,0,4.982,40.293,28.534,28.534,0,0,0,21.195,5.884,29.348,29.348,0,0,0,3.991-.9c-.021.443-.114.877-.114,1.323a27.221,27.221,0,0,0,27.238,27.221,27.5,27.5,0,0,0,11.177-2.389c.017.172-.005.335.017.5a24.445,24.445,0,0,0,9.574,16.555l1.056.9a24.69,24.69,0,0,0,26.48,2.045,25.294,25.294,0,0,0,10.04,15.824l-149.463-.119h-.005a5.415,5.415,0,0,0-.006,10.829l360.869.282h.005a5.415,5.415,0,0,0,.005-10.829l-179.641-.143a25.716,25.716,0,0,0,5.718-6.146l1.181-1.836.124.092a26.307,26.307,0,0,0,41.951-24.32,24.81,24.81,0,0,0,28.121-29.5,27.647,27.647,0,0,0,29.02-32.811,26.661,26.661,0,0,0,21.736-7.5,26.375,26.375,0,0,0,7.1-24.026c.325-.039.7-.021,1.018-.065l20.929-2.912a14.469,14.469,0,0,0,9.714,3.768,14,14,0,0,0,5.838-1.263l37.933-16.775A14.385,14.385,0,0,0,1384.412,5187.253Zm-374.13,7.316a3.792,3.792,0,0,1-2.74-.746l-29.069-23a3.583,3.583,0,0,1-.661-4.948l70.44-95.712a3.434,3.434,0,0,1,2.355-1.379,3.623,3.623,0,0,1,.477-.033,3.457,3.457,0,0,1,2.171.755l29.313,23.123a3.521,3.521,0,0,1,.688,4.773l-.91,1.236c-.043.057-.119.083-.162.146l-40.483,54.89c-.038.05-.081.089-.12.137l-6.9,9.378-18.454,25.031c-.044.053-.049.119-.087.172l-3.492,4.749A3.537,3.537,0,0,1,1010.282,5194.569Zm20.529,78.982a17.969,17.969,0,0,1-3.071-25.123l20.864-26.876a17.891,17.891,0,1,1,28.186,22.042l-20.864,26.87A17.84,17.84,0,0,1,1030.811,5273.551Zm35.4,27.675a16.308,16.308,0,0,1-2.513-23.025l20.756-26.811.016-.023c13.2-17.138,40.2,3.284,26.166,20.822l-21.314,26.514A16.539,16.539,0,0,1,1066.209,5301.227Zm49.109,23.919a14.061,14.061,0,0,1-10.245-2.383l-1.067-.9a14.02,14.02,0,0,1-5.615-9.53,14.347,14.347,0,0,1,3.033-10.864l15.8-19.56a14.251,14.251,0,0,1,22.543,17.432c-.038.071-.1.125-.141.19-2.664,3.575-15.791,21.182-14.951,20.056A14.107,14.107,0,0,1,1115.319,5325.146Zm55.3.36c-2.837,3.777-12.308,26.142-27.833,16.014l-.883-.585a14.736,14.736,0,0,1-3.969-21c10.246-13.474,10.386-13.777,12.715-15.2C1164.493,5296.626,1178.946,5312.831,1170.623,5325.505Zm116.171-86.146a15.755,15.755,0,0,1-20.047,1.581l-51.709-38.264a5.4,5.4,0,0,0-7.571,1.132l-.005.012-.011.009a5.423,5.423,0,0,0,1.131,7.566l25.527,18.912,21.309,15.81a16.875,16.875,0,0,1-19.727,27.384l-.005-.006-44.6-31.892a5.416,5.416,0,1,0-6.3,8.808c58.5,41.838,38.323,27.411,42.687,30.531a14,14,0,1,1-16.63,22.52l-42.1-32.775a5.417,5.417,0,0,0-6.688,8.523l36.8,28.715a15.452,15.452,0,0,1,1.527,23.242,15.836,15.836,0,0,1-20.274,1.361l-.753-.553.347-.544a25.734,25.734,0,0,0-7.592-35.574l-.017-.012a27.2,27.2,0,0,0-18.779-3.625,24.831,24.831,0,0,0-10.023-21.512,25.521,25.521,0,0,0-18.335-4.793c-.065.006-.125,0-.179.006a27.677,27.677,0,0,0-9.844-25.31l-.412-.324a27.006,27.006,0,0,0-23.177-5.412,28.59,28.59,0,0,0-48.682-22.683c-.585.579-1.229,1.073-1.776,1.708v-3.554a20.642,20.642,0,0,0-8.339-16.689l-4.381-3.3,8.258-11.2.011-.015,8.746-11.911,4.776-6.476a6.592,6.592,0,0,0,.455-.52l37.039-50.316,2.507,2.143a18.06,18.06,0,0,0,12.011,4.5h27.46l-15.812,15.159a18.262,18.262,0,0,0,4.836,29.663,56.025,56.025,0,0,0,50.171-.986l6.748-3.5a18.218,18.218,0,0,1,19.938,1.967l65.7,52.617a54.653,54.653,0,0,0,29.377,11.729A15.512,15.512,0,0,1,1286.794,5239.359Zm14.253-27.12a44.5,44.5,0,0,1-33.331-9.26l-62.312-49.937-3.363-2.66a29,29,0,0,0-31.706-3.09l-6.758,3.512a45.241,45.241,0,0,1-40.495.785,7.386,7.386,0,0,1-4.245-6.751,7.257,7.257,0,0,1,2.274-5.322c.542-.526,26.1-25.013,25.554-24.493l6.72-6.434a29.149,29.149,0,0,1,24.211-7.771l69.757,10.3a29.132,29.132,0,0,0,18.374-3.409l8.719-4.885,43.429,107.073Zm71.5-16.347-37.965,16.787a3.486,3.486,0,0,1-4.375-1.3l-.016.012c-4.516-9.917,14.188,35.075-48.9-120.552a3.528,3.528,0,0,1,1.917-4.591l37.9-16.847a3.543,3.543,0,0,1,2.8-.054,3.427,3.427,0,0,1,1.912,1.971l48.557,119.973A3.564,3.564,0,0,1,1372.542,5195.892Z" transform="translate(32.201 16.796)"/><path class="b" d="M1025.687,5087.65a5.411,5.411,0,0,0,0-7.658l-23.026-23.031a5.415,5.415,0,0,0-7.657,7.658l23.025,23.031A5.417,5.417,0,0,0,1025.687,5087.65Z" transform="translate(152.099 5.502)"/><path class="b" d="M1019.515,5087.65l23.031-23.031a5.415,5.415,0,0,0-7.657-7.658l-23.031,23.031a5.415,5.415,0,0,0,7.657,7.658Z" transform="translate(226.49 5.502)"/><path class="b" d="M1014.8,5089.326v-29.785a5.415,5.415,0,0,0-10.83,0v29.785a5.415,5.415,0,0,0,10.83,0Z" transform="translate(198.68)"/></g></svg>