<svg xmlns="http://www.w3.org/2000/svg" width="503.896" height="369.334" viewBox="0 0 503.896 369.334"><defs><style>.a{fill:#64e6ba;}.b{fill:#2f2f2f;stroke:#fff;stroke-width:2px;}</style></defs><g transform="translate(-498.671 9729.859)"><path class="a" d="M216.741,1262.151a3.987,3.987,0,0,0,4.135-3.847l.185-5.739,5.739.191a3.99,3.99,0,0,0,.262-7.976l-5.739-.19.185-5.733a3.987,3.987,0,0,0-7.97-.262l-.191,5.739-5.739-.191a3.99,3.99,0,0,0-.262,7.975l5.739.191-.185,5.739A3.983,3.983,0,0,0,216.741,1262.151Z" transform="translate(715.32 -10925.495)"/><path class="a" d="M157.952,1237.851a4,4,0,0,0-5.172-2.2l-5.33,2.144-2.138-5.33a3.99,3.99,0,0,0-7.4,2.979l2.139,5.33-5.324,2.138a3.989,3.989,0,0,0,2.973,7.4l5.33-2.138,2.138,5.324a3.992,3.992,0,0,0,7.408-2.978l-2.144-5.325,5.324-2.143A4,4,0,0,0,157.952,1237.851Z" transform="translate(397.773 -10946.738)"/><path class="a" d="M153.392,1278.482a4,4,0,0,0-5.172-2.2l-5.324,2.144-2.144-5.331a3.99,3.99,0,0,0-7.4,2.979l2.144,5.325-5.33,2.144a3.99,3.99,0,0,0,2.979,7.4l5.324-2.144,2.144,5.33a3.989,3.989,0,0,0,7.4-2.974l-2.144-5.33,5.33-2.144A4,4,0,0,0,153.392,1278.482Z" transform="translate(377.457 -10765.711)"/><path class="a" d="M180.567,1306.188a3.978,3.978,0,0,0,4.6,3.268l5.657-.976.977,5.657a3.992,3.992,0,0,0,7.867-1.358l-.982-5.657,5.657-.976a3.992,3.992,0,0,0-1.358-7.867l-5.657.982-.982-5.663a3.987,3.987,0,0,0-7.856,1.364l.977,5.657-5.657.977A3.978,3.978,0,0,0,180.567,1306.188Z" transform="translate(612.866 -10677.96)"/><path class="b" d="M132.121,1298.025l125.97.1h.005a5.455,5.455,0,0,0,.005-10.911l-125.971-.1h-.005a5.455,5.455,0,0,0-.005,10.911Z" transform="translate(373 -10692.174)"/><path class="b" d="M299.647,1287.237l-94.918-.065a5.455,5.455,0,0,0-.005,10.911l94.913.065h.005a5.455,5.455,0,0,0,.005-10.911Z" transform="translate(696.47 -10691.916)"/><path class="b" d="M464.741,1332.34a34.164,34.164,0,0,0-59.7-22.738l-68.749-36.638a34.16,34.16,0,1,0-64.652,0L202.893,1309.6a34.172,34.172,0,1,0-30.943,56.464v61.454a34.157,34.157,0,1,0,31,56.36l67.941,36.164a33.789,33.789,0,0,0,7.938,31.7l-58.9-.038a5.455,5.455,0,0,0-.005,10.911l80.86.054a31.163,31.163,0,0,0,6.29.005l97.93.071a5.456,5.456,0,0,0,.005-10.911l-75.934-.054a33.795,33.795,0,0,0,7.97-31.734l67.947-36.169a34.158,34.158,0,1,0,31-56.355v-61.454A34.225,34.225,0,0,0,464.741,1332.34Zm-34.205-23.295a23.294,23.294,0,1,1-23.294,23.295A23.317,23.317,0,0,1,430.536,1309.046ZM425.08,1366.1v61.384a34.482,34.482,0,0,0-22.394,14.015c-.071.109-.158.2-.229.305l-31.9-16.606a71.781,71.781,0,0,0,.971-57.516l30.834-16.05c.076.109.164.2.235.311A34.524,34.524,0,0,0,425.08,1366.1Zm-121.132,91.421c-.251,0-.5-.032-.742-.038a59.293,59.293,0,0,1-38.4-14.751,43.371,43.371,0,0,1,22.045-21.036,5.461,5.461,0,0,0,.911-9.558,29.263,29.263,0,1,1,32.454-.077,5.452,5.452,0,0,0,.884,9.564,43.42,43.42,0,0,1,22.029,21.1A59.74,59.74,0,0,1,303.949,1457.525Zm47.56-22.268a54.585,54.585,0,0,0-18.554-19.694,40.139,40.139,0,1,0-57.942.043,54.539,54.539,0,0,0-18.576,19.656,62.625,62.625,0,1,1,95.071-.005Zm-146.024,6.551c-.071-.1-.158-.2-.229-.294a34.436,34.436,0,0,0-22.394-14.026V1366.1A34.344,34.344,0,0,0,205.315,1352c.087-.12.185-.229.273-.354l30.817,16.045a71.788,71.788,0,0,0,.977,57.516Zm192.2-100.041-30.948,16.11a72.56,72.56,0,0,0-57.314-35.476v-26.71c.115-.017.224-.049.338-.066a34.235,34.235,0,0,0,21.451-13l67.92,36.185A33.919,33.919,0,0,0,397.689,1341.767Zm-93.718-103.1a23.287,23.287,0,1,1-23.295,23.295A23.318,23.318,0,0,1,303.97,1238.671Zm-27.25,43.954a34.238,34.238,0,0,0,21.451,12.994c.115.022.229.055.344.072v26.71a72.561,72.561,0,0,0-57.32,35.476l-30.948-16.11a33.833,33.833,0,0,0,1.364-9.426,36.194,36.194,0,0,0-2.8-13.53Zm-122.61,49.715a23.295,23.295,0,1,1,23.295,23.294A23.321,23.321,0,0,1,154.111,1332.34Zm23.295,152.15a23.267,23.267,0,1,1,23.295-23.239A23.294,23.294,0,0,1,177.405,1484.491Zm32.787-32.83,32.269-16.8a73.082,73.082,0,0,0,54.821,33.245c.409.038.818.1,1.233.125v26.7a34.621,34.621,0,0,0-23.245,15.084l-66.4-35.345A33.978,33.978,0,0,0,210.192,1451.661Zm92.2,100.1a23.266,23.266,0,1,1,3.148.005Zm30.277-41.739a34.291,34.291,0,0,0-22.454-14.91c-.267-.049-.518-.131-.786-.174v-26.7c.431-.033.851-.092,1.282-.13l.4-.038a73.074,73.074,0,0,0,54.368-33.2l32.269,16.8a33.754,33.754,0,0,0,1.326,23.011Zm121.164-48.765a23.291,23.291,0,0,1-23.295,23.239c-16.9,0-28.4-17.653-21.085-33.141a23.294,23.294,0,0,1,44.38,9.9Z" transform="translate(446.643 -10956.619)"/></g></svg>