<svg xmlns="http://www.w3.org/2000/svg" width="462.188" height="337.109" viewBox="0 0 462.188 337.109"><defs><style>.a{fill:#64e6ba;}.b,.c,.d,.f{fill:#2f2f2f;}.b{stroke:#fefefe;}.b,.d{stroke-width:2px;}.d{stroke:#fff;}.e{fill:#fff;stroke:#2f2f2f;stroke-width:8px;}.f{font-size:57px;font-family:FiraSans-Bold, Fira Sans;font-weight:700;}.g{stroke:none;}.h{fill:none;}</style></defs><g transform="translate(-693.812 -290.891)"><g transform="translate(401.681 -1078.919)"><path class="a" d="M311.315,1375.276a3.659,3.659,0,0,0-3.977,3.276l-.505,5.237-5.242-.505a3.658,3.658,0,0,0-.7,7.283l5.242.506-.51,5.242a3.661,3.661,0,0,0,7.288.7l.505-5.237,5.237.5a3.658,3.658,0,0,0,.705-7.283l-5.242-.505.505-5.242A3.667,3.667,0,0,0,311.315,1375.276Z" transform="translate(17.871 17.803)"/><path class="a" d="M383.2,1429.432a3.654,3.654,0,0,0,3.787-3.526l.17-5.262,5.262.175a3.659,3.659,0,0,0,.24-7.313l-5.262-.175.17-5.258a3.656,3.656,0,0,0-7.308-.24l-.175,5.262-5.262-.175a3.659,3.659,0,0,0-.24,7.313l5.262.175-.17,5.262A3.648,3.648,0,0,0,383.2,1429.432Z" transform="translate(311.874 134.051)"/><path class="a" d="M387.784,1399.744a3.653,3.653,0,0,0,3.787-3.526l.17-5.262,5.262.174a3.658,3.658,0,0,0,.24-7.312l-5.262-.175.17-5.262a3.658,3.658,0,0,0-7.313-.235l-.17,5.262-5.262-.175a3.658,3.658,0,0,0-.24,7.313l5.262.171-.17,5.261A3.653,3.653,0,0,0,387.784,1399.744Z" transform="translate(330.215 15.239)"/><path class="a" d="M342.629,1432.982a3.673,3.673,0,0,0-3.766,3.527l-.17,5.262-5.262-.171a3.659,3.659,0,0,0-.24,7.313l5.262.17-.17,5.262a3.658,3.658,0,0,0,7.313.235l.17-5.256,5.262.17a3.659,3.659,0,0,0,.24-7.313l-5.262-.17.17-5.262A3.675,3.675,0,0,0,342.629,1432.982Z" transform="translate(146.217 248.809)"/><path class="b" d="M298.128,1438.768l46.324.039h.005a5,5,0,0,0,0-10l-46.324-.04h0a5,5,0,0,0-.005,10Z" transform="translate(0 231.935)"/><path class="b" d="M397.739,1428.841l-12-.01h0a5,5,0,0,0-.005,10l12,.01h0a5,5,0,0,0,0-10Z" transform="translate(350.583 232.207)"/><path class="c" d="M343.719,1385.168H373.8a5.177,5.177,0,1,0,0-10.354H343.719a5.177,5.177,0,1,0,0,10.354Z" transform="translate(181.717 16.024)"/><path class="c" d="M339.133,1385.168h5.9a5.177,5.177,0,1,0,0-10.354h-5.9a5.177,5.177,0,1,0,0,10.354Z" transform="translate(163.363 16.024)"/><path class="c" d="M346.128,1424a8.784,8.784,0,1,0,8.814,8.814A8.792,8.792,0,0,0,346.128,1424Z" transform="translate(177.066 212.876)"/><path class="c" d="M380.683,1418.509a17.291,17.291,0,1,0-25.26.024,23.071,23.071,0,0,0-8.889,10.66,2.506,2.506,0,0,0,.59,2.761,30.559,30.559,0,0,0,41.852,0,2.508,2.508,0,0,0,.605-2.772A23.359,23.359,0,0,0,380.683,1418.509ZM351.9,1429.5a17.948,17.948,0,0,1,8.909-8.159,2.5,2.5,0,0,0,.43-4.387,12.288,12.288,0,1,1,19.073-10.229,12.131,12.131,0,0,1-5.427,10.17,2.5,2.5,0,0,0,.4,4.392,18.2,18.2,0,0,1,8.924,8.208C375.076,1436.957,360.89,1436.9,351.9,1429.5Z" transform="translate(212.976 74.486)"/><path class="d" d="M443.474,1394.751H362.091a5,5,0,0,0,0,10h81.383a5,5,0,0,0,0-10Z" transform="translate(255.963 73.663)"/><path class="b" d="M399.191,1596.9v48.22a25.523,25.523,0,0,0,5.457,15.682l-43.188-.036h0a5,5,0,0,0,0,10l323.257.245h.005a5,5,0,0,0,0-10l-80.783-.06a25.48,25.48,0,0,0,5.592-15.831v-115.1h83.584a17.724,17.724,0,0,0,17.707-17.707v-60.675a17.747,17.747,0,0,0-17.707-17.757H609.527V1396.52a25.764,25.764,0,0,0-25.76-25.71H424.9a25.738,25.738,0,0,0-25.711,25.71v104.243C399.072,1426.587,399.757,1647.586,399.191,1596.9Zm25.12,63.916a15.721,15.721,0,0,1-15.116-15.7v-14.656H599.523v14.656a15.774,15.774,0,0,1-15.756,15.757C567.465,1660.872,642.831,1660.9,424.311,1660.818Zm276.5-209.175v60.675a7.71,7.71,0,0,1-7.7,7.7H566.459a13.431,13.431,0,0,0-8.793,3.241l-15.766,13.38v-7.368a9.265,9.265,0,0,0-9.254-9.254h-5a7.736,7.736,0,0,1-7.753-7.7v-60.675a7.76,7.76,0,0,1,7.753-7.753H693.111A7.733,7.733,0,0,1,700.814,1451.642ZM424.9,1380.814H583.767a15.747,15.747,0,0,1,15.756,15.706v14.656H409.2V1396.52A15.723,15.723,0,0,1,424.9,1380.814ZM409.2,1421.18H599.523v12.705H527.644a17.774,17.774,0,0,0-17.757,17.757v60.675a17.751,17.751,0,0,0,17.757,17.707H531.9v12.855a6.982,6.982,0,0,0,5.9,6.963c.175.035.35.04.535.06.23.02.465.075.7.075.135,0,.255-.06.39-.071a7.192,7.192,0,0,0,1.531-.265c.235-.07.47-.1.7-.2a6.978,6.978,0,0,0,1.991-1.156l20.548-17.447a3.4,3.4,0,0,1,2.271-.82h33.064v90.437H409.2V1596.9c-.073-53.761-.138-34.933,0-96.139Z" transform="translate(18.886 0)"/></g><path class="d" d="M298.128,1438.768l46.324.039h.005a5,5,0,0,0,0-10l-46.324-.04h0a5,5,0,0,0-.005,10Z" transform="translate(722.681 -1020.984)"/><g transform="translate(72 249)"><g class="e" transform="translate(706 239)"><circle class="g" cx="48" cy="48" r="48"/><circle class="h" cx="48" cy="48" r="44"/></g><text class="f" transform="translate(736 306)"><tspan x="0" y="0">₹</tspan></text></g></g></svg>