<svg xmlns="http://www.w3.org/2000/svg" width="517.149" height="382.982" viewBox="0 0 517.149 382.982"><defs><style>.a{fill:#64e6ba;}.b{fill:#2f2f2f;stroke:#fff;stroke-width:2px;}</style></defs><g transform="translate(-1623.812 -2502.809)"><g transform="translate(1624.812 2502.809)"><path class="a" d="M1638.474,2530.836a4.09,4.09,0,0,0,4.48-3.668l.565-5.862,5.863.564a4.095,4.095,0,0,0,.789-8.151l-5.868-.566.566-5.869a4.1,4.1,0,0,0-8.153-.784l-.56,5.862-5.868-.565a4.1,4.1,0,0,0-.784,8.154l5.863.564-.565,5.868A4.081,4.081,0,0,0,1638.474,2530.836Z" transform="translate(-1620.214 -2502.809)"/><path class="a" d="M1720.914,2535.941a4.083,4.083,0,0,0,4.239-3.942l.191-5.891,5.891.19a4.093,4.093,0,0,0,.269-8.181l-5.89-.2.19-5.891a4.1,4.1,0,0,0-8.186-.263l-.191,5.885-5.89-.19a4.1,4.1,0,0,0-.263,8.186l5.885.19-.19,5.891A4.082,4.082,0,0,0,1720.914,2535.941Z" transform="translate(-1245.305 -2479.77)"/><path class="a" d="M1675.856,2566.183a4.107,4.107,0,0,0-4.216,3.948l-.19,5.89-5.891-.2a4.1,4.1,0,0,0-.263,8.186l5.886.19-.191,5.89a4.1,4.1,0,0,0,8.187.27l.19-5.89,5.89.2a4.1,4.1,0,0,0,.269-8.186l-5.89-.2.19-5.89A4.105,4.105,0,0,0,1675.856,2566.183Z" transform="translate(-1456.771 -2211.33)"/><path class="b" d="M1630.406,2812.367l205.871.168a5.6,5.6,0,0,0,.005-11.2l-38.867-.028a46.646,46.646,0,0,0,16.564-34.74h136.812a46.625,46.625,0,0,0,16.726,34.874l-91.109-.072a5.6,5.6,0,0,0-.005,11.2l215.586.174a5.6,5.6,0,0,0,.005-11.2l-64.562-.051a46.638,46.638,0,0,0,16.77-34.924h22.846a22.424,22.424,0,0,0,22.4-22.4v-83.322a24.8,24.8,0,0,0-4.044-13.7l-55.591-85.124a15.225,15.225,0,0,0-12.823-7.178h-95.236v-28.126a16.819,16.819,0,0,0-16.8-16.8H1692.1a16.819,16.819,0,0,0-16.8,16.8c.005,17.432,0-71.249.011,217.446a22.424,22.424,0,0,0,22.4,22.4h22.868a46.6,46.6,0,0,0,16.519,34.689l-106.676-.09h-.005a5.6,5.6,0,0,0-.005,11.2Zm367.108-11.2a35.532,35.532,0,1,1,35.534-35.535A35.59,35.59,0,0,1,1997.514,2801.167ZM1686.5,2526.725a5.609,5.609,0,0,1,5.6-5.6h212.86a5.605,5.605,0,0,1,5.6,5.6v167.74H1686.5Zm.011,217.446V2705.7H1916.2a5.6,5.6,0,0,0,5.6-5.6V2566.049h95.191a4,4,0,0,1,3.376,2.006l55.676,85.241a13.657,13.657,0,0,1,2.207,7.553v83.322a11.211,11.211,0,0,1-11.2,11.2h-23.971a46.72,46.72,0,0,0-91.161,0H1812.849a46.713,46.713,0,0,0-91.149,0h-23.994A11.215,11.215,0,0,1,1686.507,2744.17Zm45.222,21.462a35.549,35.549,0,1,1,35.563,35.535A35.585,35.585,0,0,1,1731.728,2765.633Z" transform="translate(-1624.812 -2470.066)"/><path class="b" d="M1731.459,2562.025l-13.444-.017h-.005a5.6,5.6,0,0,0-.006,11.2l13.444.016h.005a5.6,5.6,0,0,0,.005-11.2Z" transform="translate(-1221.904 -2230.51)"/><path class="b" d="M1668.992,2597.142a22.812,22.812,0,1,0-22.812-22.818A22.843,22.843,0,0,0,1668.992,2597.142Zm0-34.425a11.613,11.613,0,1,1-11.614,11.607A11.622,11.622,0,0,1,1668.992,2562.717Z" transform="translate(-1526.53 -2278.769)"/><path class="b" d="M1668.992,2597.142a22.812,22.812,0,1,0-22.812-22.818A22.843,22.843,0,0,0,1668.992,2597.142Zm0-34.425a11.613,11.613,0,1,1-11.614,11.607A11.622,11.622,0,0,1,1668.992,2562.717Z" transform="translate(-1296.511 -2278.769)"/><path class="b" d="M1692.59,2610.358h97.225a12.1,12.1,0,0,0,10.146-18.692l-41.385-63.6a12.067,12.067,0,0,0-10.125-5.47h-55.86a12.111,12.111,0,0,0-12.1,12.1v63.559A12.114,12.114,0,0,0,1692.59,2610.358Zm-.9-75.66a.9.9,0,0,1,.9-.9h55.86a.9.9,0,0,1,.756.4l41.365,63.566a.874.874,0,0,1,.038.924.844.844,0,0,1-.795.47H1692.59a.905.905,0,0,1-.9-.9Z" transform="translate(-1368.721 -2411.792)"/><path class="b" d="M1711,2539.962h-23.009a6.5,6.5,0,1,0,0,13H1711a6.5,6.5,0,0,0,0-13Z" transform="translate(-1364.121 -2331.916)"/><path class="b" d="M1769.074,2515.871H1659.883a16.816,16.816,0,0,0-16.8,16.8v95.576a16.815,16.815,0,0,0,16.8,16.8h109.191a16.811,16.811,0,0,0,16.8-16.8V2532.67A16.812,16.812,0,0,0,1769.074,2515.871Zm-41.694,11.2v24.946l-8.557-9.032a6.727,6.727,0,0,0-4.4-1.629,6.649,6.649,0,0,0-4.4,1.641l-8.376,7.285V2527.07Zm47.293,101.176a5.6,5.6,0,0,1-5.6,5.6H1659.883a5.606,5.606,0,0,1-5.6-5.6V2532.67a5.606,5.606,0,0,1,5.6-5.6h30.563v33.043a6.722,6.722,0,0,0,11.132,5.067L1714.439,2554l12.941,11.188a6.714,6.714,0,0,0,11.126-5.067V2527.07h30.568a5.6,5.6,0,0,1,5.6,5.6Z" transform="translate(-1540.766 -2442.722)"/></g></g></svg>