<svg xmlns="http://www.w3.org/2000/svg" width="527.226" height="378.627" viewBox="0 0 527.226 378.627"><defs><style>.a{fill:#64e6ba;}.b,.c{fill:#2f2f2f;}.b{stroke:#fff;stroke-width:2px;}</style></defs><g transform="translate(-625.051 -661.686)"><path class="a" d="M686.373,736.6a3.574,3.574,0,0,0-3.614-3.54l-5.144.068-.063-5.144a3.577,3.577,0,0,0-7.153.092l.068,5.144-5.144.068a3.574,3.574,0,0,0,.092,7.148l5.144-.063.068,5.144a3.574,3.574,0,0,0,7.148-.091l-.063-5.15,5.144-.068A3.564,3.564,0,0,0,686.373,736.6Z" transform="translate(168.374 291.28)"/><path class="a" d="M718.357,666.838a4.181,4.181,0,0,0-4.293,4.019l-.2,6.006-6.006-.194a4.175,4.175,0,0,0-.268,8.347l6.006.194-.2,6.006a4.175,4.175,0,0,0,8.346.274l.2-6.006,6,.194a4.175,4.175,0,0,0,.274-8.346l-6.006-.194.2-6.006A4.19,4.19,0,0,0,718.357,666.838Z" transform="translate(365.005 19.9)"/><path class="a" d="M643.3,691.282a4.164,4.164,0,0,0,4.327-4.019l.194-6.006,6.006.2a4.176,4.176,0,0,0,.274-8.347l-6.006-.2.194-6.006a4.175,4.175,0,0,0-8.346-.268l-.194,6.006-6.006-.2a4.176,4.176,0,0,0-.268,8.347l6,.194-.194,6.006A4.16,4.16,0,0,0,643.3,691.282Z" transform="translate(15.985 0)"/><path class="a" d="M633.294,721.513a4.172,4.172,0,0,0,5.441,2.3l5.56-2.278,2.284,5.555a4.174,4.174,0,0,0,7.724-3.169l-2.284-5.56,5.561-2.278a4.175,4.175,0,0,0-3.169-7.724l-5.56,2.278-2.284-5.554a4.174,4.174,0,0,0-7.724,3.168l2.278,5.56-5.555,2.278A4.166,4.166,0,0,0,633.294,721.513Z" transform="translate(32.651 187.847)"/><path class="b" d="M631.754,731.932l22.168.017h.006a5.709,5.709,0,0,0,.006-11.418l-22.168-.017h-.006a5.709,5.709,0,0,0-.006,11.418Z" transform="translate(0 272.67)"/><path class="b" d="M1097.654,1004.939a5.709,5.709,0,0,0,.006-11.418l-86.708-.068,45.392-30.64a17.184,17.184,0,0,0,4.687-23.669l-23.47-35.361a11.844,11.844,0,0,0-13.148-5.2l-4.476-7.114a9.487,9.487,0,0,1-1.016-7.644,20.566,20.566,0,0,0-2.358-16.853l-22.939-36.452a16.708,16.708,0,0,0-23.144-5.292,16.364,16.364,0,0,0-4.082,3.808V744.016A23.916,23.916,0,0,0,942.535,720.1H861.965a46.848,46.848,0,1,0-91.173,0H690.256a23.916,23.916,0,0,0-23.864,23.921V923.734a19.748,19.748,0,0,0,19.7,19.754h92.474L773.344,970.9h-3.877a28.187,28.187,0,0,0-27.614,22.345l-99.913-.08h-.006a5.709,5.709,0,0,0-.006,11.418c49.406.463,270.046.212,270.988.212h.005a5.709,5.709,0,0,0,.006-11.418l-22.025-.017A28.366,28.366,0,0,0,863.2,970.9h-5.635l-5.212-27.415h94.289a19.555,19.555,0,0,0,10.282-3.026l.268.428a12.063,12.063,0,0,0-.936,14.193l25.388,38.347c-.571,0-29.327-.023-28.665-.017a5.709,5.709,0,0,0-.006,11.418l39.163.029c.051,0,.1.011.149.011l.1-.011,105.262.079ZM976.5,834.926a5.311,5.311,0,0,1,7.439,1.65l22.984,36.52a9.212,9.212,0,0,1,1.028,7.559,20.946,20.946,0,0,0,2.312,16.893l4.151,6.588c-.577.359-51.112,32.17-47.893,30.143l-3.534-5.629h0l-.845-1.348a21.014,21.014,0,0,0-13.313-9.214l-42.669-8.832a5.137,5.137,0,0,1-3.973-5.48c.069-.2.126-.4.177-.611a5.186,5.186,0,0,1,6.132-3.894l14.558,3.311a5.705,5.705,0,0,0,6.126-8.552l-38.89-63.29c-1.639-2.62-1.1-6.365,1.513-7.9a5.424,5.424,0,0,1,7.188,1.644c3.437,5.623-12.44-20.37,33.586,55a5.711,5.711,0,1,0,9.665-6.086c-.508-.811-12.834-20.507-12.046-19.251a5.16,5.16,0,0,1-.605-2.1,48.5,48.5,0,0,0,2.632-5.07A5.386,5.386,0,0,1,939.4,848.7c.377.594,11.658,18.56,10.967,17.464a5.713,5.713,0,0,0,9.671-6.085l-7.388-11.732-.069-.068a5.4,5.4,0,0,1,1.787-7.325,5.341,5.341,0,0,1,7.336,1.753c.908,1.444,10.082,16,9.511,15.089a5.711,5.711,0,0,0,9.665-6.086l-5.914-9.4-.029-.074A5.33,5.33,0,0,1,976.5,834.926Zm-187.06-14.467A46.8,46.8,0,0,0,773.3,792.011l23.983-39.8a46.415,46.415,0,0,0,14.975,3.9c2.01.2,3.414.188,4.105.206h0a40.208,40.208,0,0,0,4.11-.206,46.48,46.48,0,0,0,15.7-4.247l24.577,39.152a46.784,46.784,0,0,0-17.424,29.447ZM778.676,827.9a35.21,35.21,0,0,1-8.615,23.076,31.986,31.986,0,0,0-7.176-7.953,24.34,24.34,0,1,0-39.266.023,31.962,31.962,0,0,0-7.182,7.936,35.38,35.38,0,0,1,46.243-52.677c.04.023.063.068.1.091.057.034.12.046.177.074a35.438,35.438,0,0,1,15.625,27.643l-.012.052.017.085C778.619,826.8,778.676,827.344,778.676,827.9Zm-42.589,11.51a12.943,12.943,0,1,1,14.352-.046,5.705,5.705,0,0,0,.925,10.008,20.486,20.486,0,0,1,9.374,8.083,29.676,29.676,0,0,1-34.979.006,20.48,20.48,0,0,1,9.374-8.055,5.7,5.7,0,0,0,.953-10Zm73.075-118.57a13.051,13.051,0,1,1,14.467-.046,5.706,5.706,0,0,0,.925,10,20.63,20.63,0,0,1,9.466,8.175,29.9,29.9,0,0,1-35.276.012,20.62,20.62,0,0,1,9.466-8.147,5.71,5.71,0,0,0,.953-10ZM889.5,792.485a35.464,35.464,0,0,1,35.453,35.4,34.442,34.442,0,0,1-2.323,12.371c-.154.171-.383.28-.531.457l-13.416-22.254a16.665,16.665,0,0,0-10.407-7.325,16.422,16.422,0,0,0-19.81,12.109,17.639,17.639,0,0,0,2.124,13.513l15.905,25.89a35.425,35.425,0,1,1-6.993-70.158Zm53.036-60.972a12.487,12.487,0,0,1,12.446,12.5v84.921a16.334,16.334,0,0,0-6.765,2.4,16.72,16.72,0,0,0-5.378,5.486,15.139,15.139,0,0,0-4.116-1.519,15.826,15.826,0,0,0-2.923-.417,46.758,46.758,0,0,0-65.265-49.765l-24.663-39.3a47.2,47.2,0,0,0,11.823-14.307ZM816.367,674.041A35.38,35.38,0,0,1,843.3,732.432a32.23,32.23,0,0,0-7.21-7.976,24.454,24.454,0,1,0-39.409.017,32.321,32.321,0,0,0-7.227,7.976,35.392,35.392,0,0,1,26.912-58.409ZM690.256,731.513h84.807A47.093,47.093,0,0,0,787.519,746.3L763.7,785.817a46.806,46.806,0,1,0-24.549,88.712c2,.2,3.357.188,4.082.205h.006a39.744,39.744,0,0,0,4.087-.205,46.882,46.882,0,0,0,42.566-42.652h53A46.873,46.873,0,0,0,889.5,874.752a46.074,46.074,0,0,0,13.25-1.93l9.6,15.62-1.393-.319a16.433,16.433,0,0,0-18.16,8.495H677.81v-152.6A12.487,12.487,0,0,1,690.256,731.513ZM879.046,993.35l-125.335-.1a16.751,16.751,0,0,1,15.757-10.933c-3.071.006,44.079.012,93.736,0A16.94,16.94,0,0,1,879.046,993.35ZM845.951,970.9H784.968l5.218-27.415h50.547ZM686.088,932.07a8.315,8.315,0,0,1-8.278-8.336v-15.7h213.5a16.681,16.681,0,0,0,12.445,12.383l42.726,8.843a9.668,9.668,0,0,1,3.934,1.9,8.287,8.287,0,0,1-3.768.914C810.344,932.064,735.008,932.07,686.088,932.07Zm279.934,16.008,1.553-.982c.068-.034.143-.052.211-.092,6.063-3.819-21.968,13.833,59.3-37.342a.408.408,0,0,1,.24-.063.784.784,0,0,1,.64.383l23.549,35.482a5.719,5.719,0,0,1-1.564,7.884l-56.091,37.862-28.008-42.315A.6.6,0,0,1,966.022,948.078Z" transform="translate(47.914 0.063)"/><path class="c" d="M673.752,706.308a7.385,7.385,0,1,0,7.382,7.382A7.391,7.391,0,0,0,673.752,706.308Z" transform="translate(189.758 205.775)"/><circle class="c" cx="9.455" cy="9.455" r="9.455" transform="translate(1062.298 926.85)"/></g></svg>