<svg xmlns="http://www.w3.org/2000/svg" width="46.774" height="58" viewBox="0 0 46.774 58"><defs><style>.a{fill:#fff;}.b{fill:#64e6ba;}.c{fill:#4d5152;}.d{fill:#ffb957;}</style></defs><g transform="translate(1.089 0.936)"><rect class="a" width="41" height="24" rx="3" transform="translate(0.076 0.065)"/></g><g transform="translate(1.089 5.613)"><rect class="b" width="41" height="5" transform="translate(0.076 0.387)"/></g><path class="c" d="M732.958,152.165H697.41a3.746,3.746,0,0,1-3.742-3.742v-18.71a3.746,3.746,0,0,1,3.742-3.742h35.548a3.746,3.746,0,0,1,3.742,3.742v18.71A3.746,3.746,0,0,1,732.958,152.165ZM697.41,127.843a1.873,1.873,0,0,0-1.871,1.871v18.71a1.873,1.873,0,0,0,1.871,1.871h35.548a1.873,1.873,0,0,0,1.871-1.871v-18.71a1.873,1.873,0,0,0-1.871-1.871Z" transform="translate(-693.668 -125.972)"/><g transform="translate(3.895 13.097)"><rect class="b" width="26" height="4" transform="translate(0.269 -0.097)"/></g><g transform="translate(31.96 13.097)"><rect class="b" width="7" height="4" transform="translate(0.204 -0.097)"/></g><g transform="translate(13.097 7.484)"><g transform="translate(0.935 0.935)"><path class="d" d="M719.894,173.327c0-1.871-5.613-8.419-5.613-8.419l-5.613-14.032a2.806,2.806,0,0,1,2.806-2.806,3.463,3.463,0,0,1,2.806,1.871l3.742,5.613V137.778a2.806,2.806,0,0,1,5.613,0v10.29a2.806,2.806,0,1,1,5.613,0v1.871a2.806,2.806,0,0,1,5.613,0v1.871a2.806,2.806,0,1,1,5.613,0v6.548c0,6.548-3.742,10.29-3.742,12.161v2.806" transform="translate(-708.668 -134.972)"/></g><g transform="translate(10.443 39.29)"><rect class="b" width="21" height="11" transform="translate(-0.376 0.226)"/></g><g transform="translate(9.355 38.355)"><path class="c" d="M740.119,187.133h-1.871v-10.29h-18.71v10.29h-1.871V174.972h22.451Z" transform="translate(-717.668 -174.972)"/></g><g transform="translate(26.347 42.097)"><rect class="c" width="2" height="1" transform="translate(-0.279 0.42)"/></g><g transform="translate(22.605 42.097)"><rect class="c" width="1" height="1" transform="translate(0.462 0.42)"/></g><path class="c" d="M737.6,173.262h-1.871v-2.806a7.523,7.523,0,0,1,1.15-3.1,18.734,18.734,0,0,0,2.592-9.056v-6.548a1.871,1.871,0,1,0-3.742,0,.935.935,0,0,1-1.871,0v-1.871a1.871,1.871,0,0,0-3.742,0,.935.935,0,1,1-1.871,0V148a1.871,1.871,0,1,0-3.742,0,.935.935,0,0,1-1.871,0v-10.29a1.871,1.871,0,0,0-3.742,0v17.774a.936.936,0,0,1-1.714.519l-3.742-5.613a1.041,1.041,0,0,1-.054-.092,2.507,2.507,0,0,0-2.048-1.366,1.858,1.858,0,0,0-1.79,1.711l5.481,13.7c1.475,1.729,5.737,6.9,5.737,8.91h-1.871c0-.911-2.786-4.774-5.388-7.81a.954.954,0,0,1-.158-.261l-5.613-14.032a.94.94,0,0,1-.066-.348,3.746,3.746,0,0,1,3.742-3.742,4.4,4.4,0,0,1,3.613,2.329l2,3V137.714a3.742,3.742,0,1,1,7.484,0v7.051a3.74,3.74,0,0,1,5.4,2,3.741,3.741,0,0,1,5.613,1.871,3.741,3.741,0,0,1,5.823,3.109v6.548a20.63,20.63,0,0,1-2.8,9.915,7.7,7.7,0,0,0-.941,2.246Z" transform="translate(-707.668 -133.972)"/><g transform="translate(26.347 16.839)"><rect class="c" width="2" height="3" transform="translate(-0.279 -0.322)"/></g><g transform="translate(20.734 15.903)"><rect class="c" width="2" height="3" transform="translate(0.333 -0.388)"/></g><g transform="translate(15.121 14.032)"><rect class="c" width="2" height="3" transform="translate(-0.054 0.483)"/></g></g><g transform="translate(3.895 18.71)"><rect class="c" width="7" height="2" transform="translate(0.269 0.29)"/></g></svg>