<svg xmlns="http://www.w3.org/2000/svg" width="55.397" height="59" viewBox="0 0 55.397 59"><defs><style>.a{fill:#64e6ba;}.b{fill:#fff;}.c{fill:#ffb957;}.d{fill:none;stroke:#4d5152;stroke-miterlimit:10;stroke-width:2px;}</style></defs><g transform="translate(-951.921 -75)"><circle class="a" cx="27.5" cy="27.5" r="27.5" transform="translate(952 79)"/><g transform="translate(970.413 76)"><path class="b" d="M983.968,87l6.444,3.683v1.841c0,1.525-.921,2.762-1.841,2.762h-14.73c-.921,0-1.841-1.236-1.841-2.762V90.683L978.444,87" transform="translate(-972 -76.873)"/><path class="c" d="M986.206,81.063c0,3.222-1.807,5.984-4.6,5.984s-4.6-2.762-4.6-5.984S977.921,76,981.6,76,986.206,77.841,986.206,81.063Z" transform="translate(-972.397 -76)"/><path class="d" d="M986.206,81.063c0,3.222-1.807,5.984-4.6,5.984s-4.6-2.762-4.6-5.984S977.921,76,981.6,76,986.206,77.841,986.206,81.063Z" transform="translate(-972.397 -76)"/><path class="d" d="M983.968,87l6.444,3.683v1.841c0,1.525-.921,2.762-1.841,2.762h-14.73c-.921,0-1.841-1.236-1.841-2.762V90.683L978.444,87" transform="translate(-972 -76.873)"/></g><g transform="translate(952.921 107.302)"><path class="b" d="M964.968,121l6.444,3.683v1.841c0,1.525-.921,2.762-1.841,2.762h-14.73c-.921,0-1.841-1.236-1.841-2.762v-1.841L959.444,121" transform="translate(-953 -110.873)"/><path class="c" d="M967.206,115.063c0,3.222-1.807,5.984-4.6,5.984s-4.6-2.762-4.6-5.984.921-5.063,4.6-5.063S967.206,111.841,967.206,115.063Z" transform="translate(-953.397 -110)"/><path class="d" d="M967.206,115.063c0,3.222-1.807,5.984-4.6,5.984s-4.6-2.762-4.6-5.984.921-5.063,4.6-5.063S967.206,111.841,967.206,115.063Z" transform="translate(-953.397 -110)"/><path class="d" d="M964.968,121l6.444,3.683v1.841c0,1.525-.921,2.762-1.841,2.762h-14.73c-.921,0-1.841-1.236-1.841-2.762v-1.841L959.444,121" transform="translate(-953 -110.873)"/></g><g transform="translate(987.905 107.302)"><path class="b" d="M1002.968,121l6.444,3.683v1.841c0,1.525-.921,2.762-1.841,2.762h-14.73c-.921,0-1.841-1.236-1.841-2.762v-1.841L997.444,121" transform="translate(-991 -110.873)"/><path class="c" d="M1005.206,115.063c0,3.222-1.807,5.984-4.6,5.984s-4.6-2.762-4.6-5.984.921-5.063,4.6-5.063S1005.206,111.841,1005.206,115.063Z" transform="translate(-991.397 -110)"/><path class="d" d="M1005.206,115.063c0,3.222-1.807,5.984-4.6,5.984s-4.6-2.762-4.6-5.984.921-5.063,4.6-5.063S1005.206,111.841,1005.206,115.063Z" transform="translate(-991.397 -110)"/><path class="d" d="M1002.968,121l6.444,3.683v1.841c0,1.525-.921,2.762-1.841,2.762h-14.73c-.921,0-1.841-1.236-1.841-2.762v-1.841L997.444,121" transform="translate(-991 -110.873)"/></g><line class="d" y2="7" transform="translate(980 99)"/><line class="d" x1="8" y2="6" transform="translate(972 106)"/><line class="d" x2="7" y2="6" transform="translate(980 106)"/></g></svg>