<svg xmlns="http://www.w3.org/2000/svg" width="64" height="60" viewBox="0 0 64 60"><defs><style>.a{fill:#fff;}.b,.f{fill:none;stroke:#4d5152;stroke-width:2px;}.b{stroke-linejoin:round;}.c{fill:#64e6ba;}.d{fill:#f5f5f5;}.e{fill:#ffb957;}.f{stroke-miterlimit:10;}</style></defs><g transform="translate(-2544 -2374)"><path class="a" d="M2592,2429l11-33-27-17-27,17,11,33Z"/><path class="b" d="M2592,2429l11-33-27-17-27,17,11,33Z"/><circle class="c" cx="18" cy="18" r="18" transform="translate(2558 2388)"/><line class="b" x1="4" y1="6" transform="translate(2588 2423)"/><line class="b" y2="7" transform="translate(2576 2379)"/><line class="b" y1="6" x2="4" transform="translate(2560 2423)"/><line class="b" x2="7" y2="3" transform="translate(2549 2396)"/><line class="b" x1="7" y2="3" transform="translate(2596 2396)"/><circle class="a" cx="4" cy="4" r="4" transform="translate(2572 2375)"/><circle class="a" cx="4" cy="4" r="4" transform="translate(2556 2425)"/><circle class="a" cx="4" cy="4" r="4" transform="translate(2588 2425)"/><circle class="a" cx="4" cy="4" r="4" transform="translate(2545 2392)"/><circle class="a" cx="4" cy="4" r="4" transform="translate(2599 2392)"/><circle class="b" cx="4" cy="4" r="4" transform="translate(2572 2375)"/><circle class="b" cx="4" cy="4" r="4" transform="translate(2556 2425)"/><circle class="b" cx="4" cy="4" r="4" transform="translate(2588 2425)"/><circle class="b" cx="4" cy="4" r="4" transform="translate(2545 2392)"/><circle class="b" cx="4" cy="4" r="4" transform="translate(2599 2392)"/><path class="d" d="M2579,2406l7,4v2c0,1.657-1,3-2,3h-16c-1,0-2-1.343-2-3v-2l7-4"/><path class="e" d="M2581,2400.5c0,3.5-1.963,6.5-5,6.5s-5-3-5-6.5,1-5.5,5-5.5S2581,2397,2581,2400.5Z"/><path class="f" d="M2581,2400.5c0,3.5-1.963,6.5-5,6.5s-5-3-5-6.5,1-5.5,5-5.5S2581,2397,2581,2400.5Z"/><path class="f" d="M2579,2406l7,4v2c0,1.657-1,3-2,3h-16c-1,0-2-1.343-2-3v-2l7-4"/><line class="b" x2="2" transform="translate(2548 2396)"/><line class="b" x2="2" transform="translate(2575 2379)"/><line class="b" x2="2" transform="translate(2602 2396)"/><line class="b" x2="2" transform="translate(2591 2429)"/><line class="b" x2="2" transform="translate(2559 2429)"/></g></svg>