<svg xmlns="http://www.w3.org/2000/svg" width="31" height="31" viewBox="0 0 31 31"><defs><style>.a{fill:#a1a3b4;opacity:0.1;}.b{fill:#9295a5;fill-rule:evenodd;}</style></defs><g transform="translate(-88 -3602)"><circle class="a" cx="15.5" cy="15.5" r="15.5" transform="translate(88 3602)"/><path class="b" d="M553.1,747.443A2.253,2.253,0,0,1,555.386,745h2.808a2.368,2.368,0,0,1,2.247,1.618l.91,2.73a2.367,2.367,0,0,1-.572,2.423l-.44.44a9.358,9.358,0,0,0,2.838,2.822l.432-.432a2.369,2.369,0,0,1,2.423-.572l2.73.911a2.366,2.366,0,0,1,1.618,2.246v2.808a2.253,2.253,0,0,1-2.443,2.286A16.577,16.577,0,0,1,553.1,747.443Zm2.286-.865a.676.676,0,0,0-.715.709,15,15,0,0,0,13.42,13.42.675.675,0,0,0,.709-.715v-2.808a.788.788,0,0,0-.54-.749l-2.73-.91a.788.788,0,0,0-.807.19l-.437.437a1.562,1.562,0,0,1-1.987.191,10.932,10.932,0,0,1-3.288-3.28,1.558,1.558,0,0,1,.2-1.963l.447-.447a.788.788,0,0,0,.19-.807l-.91-2.73a.79.79,0,0,0-.749-.54Z" transform="translate(-458.689 2863.855)"/></g></svg>