<svg xmlns="http://www.w3.org/2000/svg" width="31" height="31" viewBox="0 0 31 31"><defs><style>.a,.b{fill:#9295a5;}.a{opacity:0.1;}.b{fill-rule:evenodd;}</style></defs><g transform="translate(-88 -3645)"><circle class="a" cx="15.5" cy="15.5" r="15.5" transform="translate(88 3645)"/><path class="b" d="M472.685,750.795l-6.494,3.543a2.278,2.278,0,0,1-2.18,0l-6.494-3.543v7.065a.759.759,0,0,0,.758.758h13.651a.759.759,0,0,0,.758-.758Zm-14.343-1.278,6.4,3.489a.758.758,0,0,0,.727,0l6.4-3.489Zm-2.106-.251A2.275,2.275,0,0,1,458.275,748h13.651a2.274,2.274,0,0,1,2.275,2.275v7.584a2.275,2.275,0,0,1-2.275,2.275H458.275A2.275,2.275,0,0,1,456,757.859v-7.584A2.272,2.272,0,0,1,456.236,749.266Z" transform="translate(-361.601 2906.433)"/></g></svg>