<svg xmlns="http://www.w3.org/2000/svg" width="25.749" height="25.749" viewBox="0 0 25.749 25.749"><defs><style>.a{fill:#2f2f2f;}</style></defs><path class="a" d="M12.875,0A12.875,12.875,0,1,0,25.749,12.875,12.876,12.876,0,0,0,12.875,0ZM9.133,19.463H6V10.029H9.133ZM7.566,8.741h-.02a1.634,1.634,0,1,1,.041-3.26,1.635,1.635,0,1,1-.021,3.26ZM20.44,19.463H17.3V14.416c0-1.268-.454-2.133-1.589-2.133a1.716,1.716,0,0,0-1.609,1.147,2.147,2.147,0,0,0-.1.765v5.268H10.869s.041-8.548,0-9.433H14v1.336A3.113,3.113,0,0,1,16.83,9.808c2.063,0,3.61,1.348,3.61,4.246Zm0,0"/></svg>