<svg xmlns="http://www.w3.org/2000/svg" width="932.876" height="630.119" viewBox="0 0 932.876 630.119"><defs><style>.a{fill:#d56451;}.b{fill:#4968e8;}.c{fill:#5bbe84;}.d{fill:#d59351;}.e{fill:#d55193;}.f,.g,.h{fill:#2f2f2f;}.g{stroke:#f7f8fb;}.h{stroke:#2f2f2f;stroke-width:3px;}.i{fill:none;stroke:#bfc3cc;stroke-width:2px;stroke-dasharray:6;}</style></defs><g transform="translate(-183.038 -1689.043)"><path class="a" d="M626.565,955.422a47.729,47.729,0,0,0-3.236-38.106Zm-70.907,15.711a28.193,28.193,0,0,1,14.259-13.526,3.784,3.784,0,0,0,.631-6.624,18.949,18.949,0,1,1,21.011-.052,3.781,3.781,0,0,0,.612,6.627,28.24,28.24,0,0,1,14.248,13.568A38.6,38.6,0,0,1,555.657,971.133Zm56.569-5.126a35.918,35.918,0,0,0-11.889-12.653,26.482,26.482,0,1,0-38.582.03,35.946,35.946,0,0,0-11.889,12.6,40.507,40.507,0,1,1,62.36.019Zm6.918-55.034a48,48,0,0,0-86.176,29.188c0,50.248,67.46,66.568,90.629,22.285l2.968-7.024-3.236-38.106Z" transform="translate(406.899 796.968)"/><path class="b" d="M606.758,942.017a37.629,37.629,0,0,0-2.551-30.042Zm-55.9,12.386A22.227,22.227,0,0,1,562.1,943.74a2.984,2.984,0,0,0,.5-5.222,14.939,14.939,0,1,1,16.565-.041,2.981,2.981,0,0,0,.483,5.224,22.264,22.264,0,0,1,11.233,10.7A30.434,30.434,0,0,1,550.856,954.4Zm44.6-4.042a28.317,28.317,0,0,0-9.373-9.975,20.878,20.878,0,1,0-30.418.024,28.339,28.339,0,0,0-9.373,9.936,31.935,31.935,0,1,1,49.164.015Zm5.454-43.388a37.845,37.845,0,0,0-67.94,23.011c0,39.615,53.185,52.481,71.451,17.569l2.34-5.537-2.551-30.042Z" transform="translate(-349.93 1299.139)"/><path class="c" d="M577.428,922.166a22.673,22.673,0,0,0-1.537-18.1Zm-33.682,7.463a13.392,13.392,0,0,1,6.773-6.425,1.8,1.8,0,0,0,.3-3.146,9,9,0,1,1,9.981-.025,1.8,1.8,0,0,0,.291,3.148,13.415,13.415,0,0,1,6.768,6.445A18.337,18.337,0,0,1,543.746,929.629Zm26.871-2.435a17.062,17.062,0,0,0-5.647-6.01,12.579,12.579,0,1,0-18.327.014,17.075,17.075,0,0,0-5.647,5.987,19.241,19.241,0,1,1,29.622.009Zm3.286-26.142a22.8,22.8,0,0,0-40.935,13.865c0,23.869,32.045,31.621,43.05,10.586l1.41-3.336-1.537-18.1Z" transform="translate(94.532 1381.425)"/><path class="d" d="M593.295,932.9a30.763,30.763,0,0,0-2.086-24.561Zm-45.7,10.126a18.172,18.172,0,0,1,9.191-8.718,2.439,2.439,0,0,0,.407-4.269,12.213,12.213,0,1,1,13.543-.034,2.437,2.437,0,0,0,.395,4.271,18.2,18.2,0,0,1,9.183,8.745A24.881,24.881,0,0,1,547.592,943.031Zm36.461-3.3a23.151,23.151,0,0,0-7.663-8.155,17.069,17.069,0,1,0-24.868.019,23.169,23.169,0,0,0-7.663,8.123,26.108,26.108,0,1,1,40.194.012Zm4.459-35.471a30.94,30.94,0,0,0-55.544,18.813c0,32.387,43.481,42.905,58.414,14.364l1.913-4.527-2.086-24.561Z" transform="translate(520.984 1163.145)"/><path class="e" d="M593.295,932.9a30.763,30.763,0,0,0-2.086-24.561Zm-45.7,10.126a18.172,18.172,0,0,1,9.191-8.718,2.439,2.439,0,0,0,.407-4.269,12.213,12.213,0,1,1,13.543-.034,2.437,2.437,0,0,0,.395,4.271,18.2,18.2,0,0,1,9.183,8.745A24.881,24.881,0,0,1,547.592,943.031Zm36.461-3.3a23.151,23.151,0,0,0-7.663-8.155,17.069,17.069,0,1,0-24.868.019,23.169,23.169,0,0,0-7.663,8.123,26.108,26.108,0,1,1,40.194.012Zm4.459-35.471a30.94,30.94,0,0,0-55.544,18.813c0,32.387,43.481,42.905,58.414,14.364l1.913-4.527-2.086-24.561Z" transform="translate(-290.016 1046.967)"/><g transform="translate(329.138 -2172.637)"><path class="f" d="M187,4128.125a3.994,3.994,0,0,0,0-7.988l-55.859-.049h0a3.994,3.994,0,0,0,0,7.988l55.859.049Z" transform="translate(0 167.205)"/><path class="f" d="M236.182,4120.177l-20.066-.019h0a3.994,3.994,0,0,0,0,7.987l20.066.02h0a3.994,3.994,0,0,0,0-7.989Z" transform="translate(254.41 167.416)"/><path class="f" d="M175.107,4076.1h23.145a3.983,3.983,0,0,0,0-7.967H175.107a3.983,3.983,0,0,0,0,7.967Z" transform="translate(131.68 11.662)"/><path class="f" d="M170.688,4076.1h4.545a3.983,3.983,0,0,0,0-7.967h-4.545a3.983,3.983,0,0,0,0,7.967Z" transform="translate(118.449 11.662)"/><path class="f" d="M177.852,4129.04a6.758,6.758,0,1,0-6.734-6.734A6.766,6.766,0,0,0,177.852,4129.04Z" transform="translate(131.659 153.538)"/><path class="g" d="M415.89,4237.318a58.135,58.135,0,0,0-58.072-58.072c-.387,0-.763.049-1.15.056V4084.17a19.95,19.95,0,0,0-19.93-19.93H214.524a19.95,19.95,0,0,0-19.93,19.93v10.921H152.566a14.117,14.117,0,0,0-14.1,14.1v48.175a14.117,14.117,0,0,0,14.1,14.1h42.028V4275.44a19.658,19.658,0,0,0,4.09,11.938c-1.6,0-20.557-.015-19.738-.015a3.993,3.993,0,0,0,0,7.987l228.553.187h0a3.994,3.994,0,0,0,0-7.987l-20.7-.016A58.012,58.012,0,0,0,415.89,4237.318Zm-201.367-165.09H336.738a11.959,11.959,0,0,1,11.942,11.941v11.143h-146.1V4084.17A11.959,11.959,0,0,1,214.524,4072.229Zm-68.069,85.136v-48.175a6.12,6.12,0,0,1,6.111-6.11h95.643a6.121,6.121,0,0,1,6.115,6.11v48.175a6.12,6.12,0,0,1-6.115,6.111h-3.978a7.376,7.376,0,0,0-7.365,7.352l-.012,5.82-12.489-10.6a10.76,10.76,0,0,0-6.969-2.567h-64.83A6.119,6.119,0,0,1,146.455,4157.365Zm70.94,14.1a2.756,2.756,0,0,1,1.789.662l16.3,13.832a5.63,5.63,0,0,0,3.658,1.358,5.691,5.691,0,0,0,2.4-.535,5.627,5.627,0,0,0,3.3-5.145l.02-10.172h3.355a14.118,14.118,0,0,0,14.1-14.1v-48.175a14.118,14.118,0,0,0-14.1-14.1H202.582v8.21h146.1v76.735a57.839,57.839,0,0,0-45.635,76.273H202.582v-84.845ZM202.582,4264.3h103.9a58.389,58.389,0,0,0,22.063,23.045H214.524a11.937,11.937,0,0,1-11.942-11.9Zm155.237,23.066a50.065,50.065,0,1,1,50.084-50.044A50.1,50.1,0,0,1,357.818,4287.363Z" transform="translate(33.903 0)"/><path class="h" d="M251.195,4149.3a60.2,60.2,0,0,1-14.179-5.085,6.615,6.615,0,0,0-8.619,2.523l-1.546,2.588a2.422,2.422,0,0,1-3.543.743,70.8,70.8,0,0,1-18.528-18.494,2.438,2.438,0,0,1,.659-3.351c.879-.616,1.757-1.22,2.676-1.767a6.61,6.61,0,0,0,2.508-8.644,60.286,60.286,0,0,1-5.068-14.151,6.6,6.6,0,0,0-7.389-5.034l-2.66.4a12.311,12.311,0,0,0-8.3,5,16.563,16.563,0,0,0-2.552,12.409c4.665,28.178,24.746,48.275,53.715,53.755a18.528,18.528,0,0,0,3.371.319,15.389,15.389,0,0,0,8.907-2.686,12.427,12.427,0,0,0,5.184-8.473l.4-2.653v0A6.585,6.585,0,0,0,251.195,4149.3Zm.683,9.444a8.524,8.524,0,0,1-3.543,5.824,12.172,12.172,0,0,1-9.23,1.7c-27.247-5.156-46.134-24.024-50.511-50.483a12.568,12.568,0,0,1,1.841-9.407,8.381,8.381,0,0,1,5.675-3.4l2.64-.4a2.456,2.456,0,0,1,.379-.027,2.567,2.567,0,0,1,2.524,1.978,64.2,64.2,0,0,0,5.408,15.088,2.609,2.609,0,0,1-.982,3.411c-1,.591-1.969,1.25-2.924,1.917a6.452,6.452,0,0,0-1.673,8.878,74.825,74.825,0,0,0,19.57,19.54,6.443,6.443,0,0,0,5.088,1.025,6.377,6.377,0,0,0,4.142-3.01l1.542-2.593a2.6,2.6,0,0,1,3.387-1.006,64.19,64.19,0,0,0,15.117,5.424,2.573,2.573,0,0,1,1.953,2.9Z" transform="translate(171.396 102.76)"/></g><line class="i" y1="86" x2="180" transform="translate(250.5 2117.5)"/><line class="i" y1="143" transform="translate(650.5 2124.5)"/><line class="i" x2="126" y2="45" transform="translate(304.5 1981.5)"/><line class="i" y1="142" x2="232" transform="translate(720.5 1769.5)"/><line class="i" x2="273" y2="16.728" transform="translate(780.5 2069.772)"/><path class="g" d="M1749.044,2515.872h-91.831A14.142,14.142,0,0,0,1643.084,2530v80.383a14.143,14.143,0,0,0,14.128,14.128h91.831a14.14,14.14,0,0,0,14.128-14.128V2530A14.139,14.139,0,0,0,1749.044,2515.872Zm-35.065,9.418v20.818l-7.2-7.433a5.66,5.66,0,0,0-3.7-1.371,5.592,5.592,0,0,0-3.7,1.379l-7.045,6.127v-19.52Zm39.774,85.092a4.71,4.71,0,0,1-4.709,4.708h-91.831a4.713,4.713,0,0,1-4.709-4.708V2530a4.714,4.714,0,0,1,4.709-4.709h25.7v27.789a5.653,5.653,0,0,0,9.362,4.262l10.817-9.4,10.884,9.409a5.647,5.647,0,0,0,9.357-4.262V2525.29h25.707a4.71,4.71,0,0,1,4.709,4.709Z" transform="translate(-1212.734 -501.566)"/></g></svg>